<?xml version="1.0" encoding="UTF-8"?>
<svg version="1.1" xmlns="http://www.w3.org/2000/svg" width="1024" height="768">
<path d="M0 0 C337.92 0 675.84 0 1024 0 C1024 253.44 1024 506.88 1024 768 C686.08 768 348.16 768 0 768 C0 514.56 0 261.12 0 0 Z " fill="#FEFEFE" transform="translate(0,0)"/>
<path d="M0 0 C1.09555206 -0.00686325 2.19110413 -0.0137265 3.31985474 -0.02079773 C6.91926257 -0.03900679 10.51823204 -0.03523621 14.11767578 -0.02954102 C16.63437033 -0.03410583 19.15106363 -0.0394123 21.66775513 -0.04542542 C26.93479357 -0.05434513 32.20171952 -0.05218247 37.46875 -0.04199219 C43.53154737 -0.03052051 49.59390186 -0.04457998 55.65664089 -0.07138866 C61.51981554 -0.09633095 67.38281962 -0.09870416 73.24603653 -0.0922718 C75.72660178 -0.092119 78.20717572 -0.09812899 80.68770981 -0.11056328 C84.16453177 -0.12553668 87.64039436 -0.11474823 91.1171875 -0.09765625 C92.12948425 -0.10732422 93.14178101 -0.11699219 94.18475342 -0.12695312 C102.95660244 -0.03721942 111.91387076 1.94912037 118.56298828 8.02905273 C119.24103516 8.61944336 119.91908203 9.20983398 120.61767578 9.81811523 C126.38362215 17.02010862 128.59799815 24.9457588 130.00439453 33.91186523 C130.27919899 35.53655228 130.27919899 35.53655228 130.55955505 37.19406128 C131.13828814 40.63674554 131.69481656 44.08257944 132.25048828 47.52905273 C132.62596558 49.78580919 133.00290852 52.04232231 133.38134766 54.29858398 C134.12978187 58.77509769 134.86685599 63.25325257 135.59472656 67.7331543 C136.32747693 72.23366296 137.08214082 76.72967618 137.85546875 81.22338867 C138.04197495 82.31440887 138.22848114 83.40542908 138.42063904 84.5295105 C138.77374578 86.5905017 139.13050509 88.65087175 139.49159241 90.71047974 C139.64913498 91.63529144 139.80667755 92.56010315 139.96899414 93.51293945 C140.17799599 94.7174324 140.17799599 94.7174324 140.39122009 95.94625854 C140.73372245 98.78281699 140.73559567 101.54964599 140.68798828 104.40405273 C141.95030777 104.3973909 143.21262726 104.39072906 144.51319885 104.38386536 C156.41635259 104.32301852 168.31947471 104.27806283 180.22274876 104.24861622 C186.34216869 104.23296845 192.46146294 104.21174607 198.58081055 104.17773438 C204.48764721 104.14510973 210.39436307 104.12719303 216.30128288 104.11942101 C218.55350585 104.11388312 220.80572229 104.10306898 223.05789375 104.08686256 C226.21541699 104.06504743 229.37244268 104.06208757 232.5300293 104.06347656 C233.4586377 104.05269073 234.38724609 104.04190491 235.34399414 104.03079224 C242.3636468 104.06414875 247.1224122 105.17311701 252.56298828 109.90405273 C255.85624507 113.77847248 256.03290243 117.16626677 255.96923828 122.05249023 C255.49541195 126.01420486 254.06564673 128.19100077 251.68798828 131.40405273 C247.37569843 134.63827013 243.44170166 135.52241909 238.13619995 135.55122375 C237.2280101 135.55837906 236.31982025 135.56553436 235.3841095 135.57290649 C234.39497055 135.5755954 233.4058316 135.5782843 232.38671875 135.58105469 C231.33905838 135.58762589 230.29139801 135.59419708 229.21199036 135.60096741 C225.74305142 135.6206853 222.27415578 135.63236069 218.80517578 135.64233398 C217.61877628 135.64640951 216.43237679 135.65048504 215.21002579 135.65468407 C208.92859318 135.67553994 202.64718239 135.68984289 196.36572266 135.69921875 C189.88951274 135.71027255 183.41364741 135.74466247 176.93755913 135.78439045 C171.94798154 135.8105838 166.95848566 135.81891311 161.96884537 135.82250023 C159.58233441 135.82736034 157.19582697 135.83895779 154.80938339 135.85753822 C151.46118938 135.88198303 148.11388162 135.88095426 144.765625 135.87402344 C143.30013466 135.89323853 143.30013466 135.89323853 141.80503845 135.9128418 C132.69240927 135.84444289 125.20367782 133.21020885 118.25830078 127.25952148 C112.2221156 120.12721312 111.07523298 112.02186829 109.43798828 103.09155273 C109.1451886 101.54414204 108.85213137 99.99678006 108.55883789 98.44946289 C105.06796406 79.78853182 102.13551251 61.024738 99.19189453 42.27124023 C99.03912552 41.30204147 98.88635651 40.33284271 98.72895813 39.33427429 C98.52220711 38.00538933 98.52220711 38.00538933 98.3112793 36.6496582 C98.19027359 35.87443817 98.06926788 35.09921814 97.94459534 34.30050659 C97.68798828 32.40405273 97.68798828 32.40405273 97.68798828 30.40405273 C46.70298828 30.89905273 46.70298828 30.89905273 -5.31201172 31.40405273 C-10.34283769 58.97299472 -10.34283769 58.97299472 -14.77636719 86.62353516 C-16.05944164 95.20375433 -17.49117597 103.72284666 -19.32373047 112.20483398 C-19.55934189 113.32208107 -19.55934189 113.32208107 -19.79971313 114.4618988 C-21.13561238 120.43224198 -23.02390873 125.01827086 -27.31201172 129.40405273 C-27.86759766 129.9725293 -28.42318359 130.54100586 -28.99560547 131.12670898 C-36.50732054 137.27815372 -47.05019242 137.88369377 -56.31201172 139.40405273 C-57.6420364 139.62719773 -58.97194582 139.85103047 -60.30175781 140.07543945 C-66.36252573 141.09789744 -72.42398962 142.11564113 -78.48950195 143.10961914 C-85.88532384 144.32248704 -93.27464434 145.55636363 -100.64794922 146.90014648 C-102.56510742 147.24928101 -102.56510742 147.24928101 -104.52099609 147.60546875 C-106.90076012 148.04272028 -109.27972379 148.48435901 -111.65771484 148.93115234 C-113.24616211 149.22324585 -113.24616211 149.22324585 -114.86669922 149.52124023 C-115.77919434 149.69252441 -116.69168945 149.86380859 -117.63183594 150.0402832 C-120.31201172 150.40405273 -120.31201172 150.40405273 -126.31201172 150.40405273 C-126.31201172 184.72405273 -126.31201172 219.04405273 -126.31201172 254.40405273 C-121.03201172 255.06405273 -115.75201172 255.72405273 -110.31201172 256.40405273 C-107.21454988 256.89243481 -104.13689582 257.39364744 -101.05419922 257.95483398 C-99.87732796 258.16334488 -99.87732796 258.16334488 -98.67668152 258.37606812 C-96.17943115 258.81910159 -93.68319372 259.26754246 -91.18701172 259.71655273 C-87.66267397 260.34642684 -84.13787348 260.97366198 -80.61279297 261.59936523 C-79.30486031 261.83187233 -79.30486031 261.83187233 -77.97050476 262.06907654 C-72.44008063 263.04611436 -66.90339704 263.96506998 -61.35498047 264.83374023 C-60.66712463 264.94270126 -59.9792688 265.05166229 -59.27056885 265.16392517 C-56.09536343 265.66680231 -52.91938096 266.15895121 -49.73925781 266.62988281 C-40.62619879 268.06958085 -30.97471682 270.29219113 -25.08422852 278.01342773 C-21.50620913 283.3801103 -20.03817624 288.35285259 -18.87451172 294.65405273 C-18.6740625 295.67345947 -18.47361328 296.69286621 -18.26708984 297.74316406 C-15.91674033 309.96480187 -13.93209588 322.25706429 -11.93701172 334.54077148 C-9.80074766 347.50727807 -7.54481046 360.45382004 -5.31201172 373.40405273 C28.67798828 373.73405273 62.66798828 374.06405273 97.68798828 374.40405273 C98.01798828 371.10405273 98.34798828 367.80405273 98.68798828 364.40405273 C99.25622356 361.2240694 99.85447791 358.06741562 100.50048828 354.90405273 C102.07965904 346.90882566 103.42162628 338.90145154 104.62548828 330.84155273 C106.06510927 321.35230021 107.5336888 311.86909399 109.12548828 302.40405273 C109.39703735 300.67819946 109.39703735 300.67819946 109.67407227 298.91748047 C111.2506858 289.75833073 113.80023149 280.52388509 121.60267067 274.7511816 C129.00328986 269.97033302 136.22695003 268.81349448 144.88574219 268.87060547 C145.95699844 268.8619899 147.0282547 268.85337433 148.13197327 268.84449768 C151.64308412 268.82195115 155.15338973 268.82855446 158.66455078 268.83764648 C161.1197432 268.83240708 163.5749336 268.82612944 166.03012085 268.81886292 C171.16259267 268.80848045 176.29478683 268.81299127 181.42724609 268.82763672 C187.99557091 268.84484808 194.56302286 268.8212876 201.13125038 268.78614712 C206.19627651 268.76416529 211.26109386 268.76561618 216.3261528 268.77391243 C218.74779596 268.77473098 221.1694546 268.76788613 223.59105301 268.7531414 C226.97758677 268.73567574 230.36255209 268.75025552 233.74902344 268.77294922 C234.74248276 268.76125702 235.73594208 268.74956482 236.75950623 268.73751831 C243.314467 268.82665826 247.58904992 270.22528893 252.68798828 274.40405273 C256.26321932 278.20273571 256.36788784 282.57835942 256.23876953 287.60717773 C255.29727592 292.38809567 252.48124456 295.47656868 248.68798828 298.40405273 C243.85358022 301.02267968 239.01332639 300.6717906 233.6652832 300.63110352 C232.15726135 300.6315416 232.15726135 300.6315416 230.61877441 300.63198853 C227.3019136 300.63059726 223.98527852 300.6150454 220.66845703 300.59936523 C218.366319 300.59563439 216.06417937 300.59278775 213.76203918 300.59078979 C207.70724085 300.583159 201.65253869 300.56351516 195.59777832 300.54138184 C189.41757508 300.52091155 183.23735628 300.51178554 177.05712891 300.50170898 C164.93403981 300.48026884 152.81102205 300.44613948 140.68798828 300.40405273 C140.572164 301.38258209 140.45633972 302.36111145 140.33700562 303.36929321 C139.19805551 312.82752136 137.81771872 322.22055146 136.22705078 331.61499023 C136.11251934 332.29391956 135.9979879 332.97284889 135.87998581 333.67235184 C135.27622034 337.25073791 134.66848787 340.82842127 134.05712891 344.40551758 C133.43309669 348.06136681 132.82282499 351.71937684 132.21555519 355.37804222 C131.73916402 358.23288717 131.25271959 361.08595535 130.76362228 363.93864822 C130.42433947 365.93246633 130.09551191 367.92805476 129.76699829 369.92367554 C127.86971439 380.84614839 125.43132231 390.95234759 116.68798828 398.40405273 C110.31078314 402.40973471 104.3694497 404.51208509 96.81939697 404.55122375 C95.86631653 404.55837906 94.91323608 404.56553436 93.93127441 404.57290649 C92.3804718 404.57693985 92.3804718 404.57693985 90.79833984 404.58105469 C89.7001593 404.58762589 88.60197876 404.59419708 87.47052002 404.60096741 C83.83988371 404.62066196 80.20928867 404.63235391 76.57861328 404.64233398 C75.33671989 404.64640951 74.09482651 404.65048504 72.81529999 404.65468407 C66.92011455 404.67338072 61.02494215 404.68795086 55.12973428 404.69629604 C48.34468633 404.70606193 41.55996516 404.73237272 34.77503228 404.77279693 C28.88200829 404.80669199 22.9890636 404.81844879 17.09593964 404.82250023 C14.59695976 404.82736493 12.09798335 404.83897549 9.59906769 404.85753822 C6.09751999 404.88193422 2.59682184 404.88096335 -0.90478516 404.87402344 C-1.93055664 404.8868335 -2.95632813 404.89964355 -4.01318359 404.9128418 C-12.96773403 404.84836507 -20.49982617 401.99109727 -27.46826172 396.29467773 C-37.39849699 386.11197885 -38.12611326 369.73150528 -40.31201172 356.40405273 C-40.4905368 355.31864197 -40.4905368 355.31864197 -40.67266846 354.21130371 C-41.82833184 347.1732741 -42.9783773 340.13436136 -44.08154297 333.08789062 C-45.90918305 321.47690258 -48.05602664 309.93911738 -50.31201172 298.40405273 C-51.74975538 298.1551079 -53.18749966 297.90616667 -54.62524414 297.65722656 C-55.57368195 297.49300201 -56.52211975 297.32877747 -57.4992981 297.15957642 C-59.64297916 296.78845105 -61.78667673 296.41742102 -63.9303894 296.04647827 C-69.85341825 295.02148268 -75.7761885 293.99503181 -81.69848633 292.96582031 C-96.7583759 290.34899651 -96.7583759 290.34899651 -111.83544922 287.83374023 C-113.15815082 287.61541043 -114.48082491 287.3969139 -115.8034668 287.17822266 C-118.09094241 286.80242421 -120.37975924 286.43464804 -122.67016602 286.07714844 C-133.65876875 284.25846041 -143.71293487 281.60073284 -150.77685547 272.52124023 C-156.15336514 264.57335637 -156.61081115 256.51108753 -156.60253906 247.17382812 C-156.60925629 246.0752095 -156.61597351 244.97659088 -156.62289429 243.84468079 C-156.64181802 240.23031026 -156.64579535 236.6161259 -156.64794922 233.00170898 C-156.65437989 230.4787946 -156.66110845 227.95588097 -156.66812134 225.43296814 C-156.68007919 220.15158895 -156.68388953 214.87025666 -156.68261719 209.58886719 C-156.68141558 203.50278038 -156.70253211 197.41704806 -156.73410451 191.33105093 C-156.76350312 185.4524057 -156.77059081 179.57389982 -156.76939774 173.69518852 C-156.77175273 171.20458972 -156.78057047 168.71398809 -156.79606247 166.22343636 C-156.81572565 162.73655101 -156.80988268 159.25057279 -156.79785156 155.76367188 C-156.80909058 154.74261353 -156.82032959 153.72155518 -156.83190918 152.66955566 C-156.75192905 143.51672793 -153.68975581 135.13611594 -147.31201172 128.40405273 C-140.55667451 122.9747632 -134.00705992 120.54755598 -125.46826172 119.17749023 C-124.80183655 119.06874573 -124.13541138 118.96000122 -123.4487915 118.84796143 C-121.99838029 118.61161256 -120.54762035 118.37739593 -119.09655762 118.14508057 C-115.11972134 117.50791553 -111.1456559 116.85388267 -107.17138672 116.20092773 C-106.31965881 116.06131622 -105.46793091 115.92170471 -104.59039307 115.77786255 C-93.40141569 113.93653942 -82.23234465 111.97970141 -71.06201172 110.02905273 C-68.98974616 109.66756146 -66.91748054 109.30607056 -64.84521484 108.94458008 C-60.00058471 108.09904408 -55.15621766 107.2520155 -50.31201172 106.40405273 C-49.26452123 100.82179745 -48.22345089 95.23837048 -47.18701172 89.65405273 C-47.02994751 88.80803497 -46.8728833 87.96201721 -46.71105957 87.09036255 C-44.08216797 72.89565131 -41.63486184 58.67740983 -39.35449219 44.42260742 C-34.75547631 15.90205348 -34.75547631 15.90205348 -22.72998047 4.91186523 C-15.59499313 0.46258396 -8.22097506 -0.03641276 0 0 Z " fill="#4C7CF3" transform="translate(462.31201171875,181.595947265625)"/>
<path d="M0 0 C4.59463938 4.0476585 5.94692065 8.63156937 6.65234375 14.58203125 C6.8026001 15.78786865 6.95285645 16.99370605 7.10766602 18.23608398 C7.25776123 19.51942627 7.40785645 20.80276855 7.5625 22.125 C7.8977305 24.84189888 8.2415399 27.55768724 8.5859375 30.2734375 C8.67148392 30.95492355 8.75703033 31.63640961 8.84516907 32.33854675 C9.64840059 38.66746291 10.64222586 44.95729926 11.6875 51.25 C13.18436397 60.31979004 14.46032508 69.39902012 15.61694336 78.51806641 C16.49205006 89.73739765 16.49205006 89.73739765 19.625 100.3125 C20.19605469 99.51070313 20.76710938 98.70890625 21.35546875 97.8828125 C27.90441217 88.6958904 34.47854248 79.52722765 41.11035156 70.39990234 C42.07058919 69.07655746 43.02855357 67.75155763 43.98339844 66.42431641 C53.99034752 52.52405083 53.99034752 52.52405083 60.625 50.3125 C62.00744178 50.21634559 63.39398114 50.17339436 64.77973938 50.16532898 C65.62502197 50.15817368 66.47030457 50.15101837 67.34120178 50.14364624 C68.26541428 50.14095734 69.18962677 50.13826843 70.1418457 50.13549805 C71.60571213 50.12564125 71.60571213 50.12564125 73.09915161 50.11558533 C76.33302892 50.09585293 79.56685981 50.08419046 82.80078125 50.07421875 C83.90482992 50.07014322 85.00887859 50.0660677 86.14638329 50.06186867 C91.98878162 50.04100921 97.83115646 50.02670635 103.67358398 50.01733398 C109.70967339 50.00626362 115.74539475 49.97185581 121.78135395 49.93216228 C126.42163278 49.90602759 131.06182346 49.89764498 135.70216942 49.89405251 C137.92731401 49.88917924 140.15245447 49.87754431 142.37752724 49.85901451 C145.49197269 49.83468833 148.60545949 49.83557634 151.7199707 49.8425293 C152.6381105 49.82971924 153.55625031 49.81690918 154.50221252 49.80371094 C161.3263434 49.85921426 164.81739845 51.80842295 169.9375 56.375 C173.0040734 59.89588057 172.96747985 63.57304599 172.90234375 68.03125 C172.46366451 71.63954118 171.00218808 73.62252401 168.625 76.3125 C162.75246825 80.74686071 158.52548272 81.44866216 151.34912109 81.35913086 C149.59907253 81.34635556 147.8490215 81.33391509 146.09896851 81.32176208 C145.17057537 81.31384581 144.24218224 81.30592953 143.28565598 81.29777336 C137.3317404 81.25564417 131.37762568 81.26750153 125.42358971 81.26766109 C120.19416674 81.26466546 114.9659368 81.24401038 109.73681641 81.18579102 C104.67531237 81.13048929 99.61580911 81.12419629 94.55409622 81.15048409 C92.63003125 81.15171552 90.70586749 81.13531791 88.78211594 81.10056877 C78.11255556 80.63151325 78.11255556 80.63151325 68.51617432 84.45608521 C66.22603416 86.96610686 64.42620258 89.43898227 62.625 92.3125 C61.41213627 93.84636646 60.18507019 95.36922667 58.9375 96.875 C57.96103516 98.1125 57.96103516 98.1125 56.96484375 99.375 C52.22414546 105.32659452 47.3466174 111.16774182 42.50244141 117.03515625 C40.61661712 119.32266846 38.73536296 121.61386277 36.85546875 123.90625 C35.93338623 125.02954712 35.93338623 125.02954712 34.99267578 126.17553711 C33.82994059 127.59223732 32.66808711 129.00966187 31.50732422 130.42797852 C17.24654241 147.78679223 17.24654241 147.78679223 9.75 148.875 C4.96834475 148.61802045 1.14965249 146.47765356 -2.375 143.3125 C-5.57015795 138.96270231 -6.22574186 134.81144952 -6.98828125 129.60546875 C-7.12332062 128.74365494 -7.25835999 127.88184113 -7.39749146 126.99391174 C-7.83810521 124.16413097 -8.2631012 121.33225422 -8.6875 118.5 C-8.98950678 116.53340424 -9.29233247 114.56693408 -9.59594727 112.60058594 C-10.22112356 108.53789914 -10.8393219 104.47423552 -11.45214844 100.40966797 C-12.19762904 95.46945786 -12.95871654 90.53184986 -13.72718811 85.59516907 C-14.29367601 81.95147127 -14.85430891 78.30689131 -15.41317749 74.66201782 C-15.67744136 72.94170747 -15.94322672 71.22163008 -16.21060181 69.50180054 C-16.58259388 67.10102794 -16.94665555 64.69918116 -17.30859375 62.296875 C-17.41761017 61.60284073 -17.52662659 60.90880646 -17.63894653 60.19374084 C-18.33376228 55.50607777 -18.46491491 51.03550319 -18.375 46.3125 C-22.51128694 49.54082152 -25.92061234 52.94851848 -29.3203125 56.9375 C-32.2655731 60.34190769 -35.32798514 63.63691924 -38.38623047 66.93945312 C-40.91665323 69.68271519 -43.34753597 72.46851836 -45.6875 75.375 C-49.13818119 79.14667479 -52.25764908 81.03860314 -57.37194824 81.70018005 C-58.95030457 81.70828453 -58.95030457 81.70828453 -60.56054688 81.71655273 C-61.76199341 81.72923691 -62.96343994 81.74192108 -64.20129395 81.75498962 C-65.48580444 81.75205399 -66.77031494 81.74911835 -68.09375 81.74609375 C-69.43843854 81.75066039 -70.78312475 81.7559674 -72.12780762 81.76197815 C-74.93865473 81.77088717 -77.74921738 81.76851109 -80.56005859 81.75854492 C-84.15135869 81.74704837 -87.74167648 81.76728679 -91.3328476 81.79646206 C-94.10738292 81.81485916 -96.88168422 81.81452491 -99.65626526 81.80882454 C-101.62044451 81.80859788 -103.5846019 81.82545859 -105.54870605 81.84263611 C-116.52365266 81.75694321 -116.52365266 81.75694321 -121.375 77.3125 C-121.973125 76.796875 -122.57125 76.28125 -123.1875 75.75 C-126.13616813 72.18055963 -125.82400812 67.51060464 -125.7890625 63.11328125 C-125.1329316 58.67511279 -122.92656275 55.95498595 -119.375 53.3125 C-115.91608919 51.70344109 -113.24069736 51.07138599 -109.4362793 51.12060547 C-108.48146164 51.12655731 -107.52664398 51.13250916 -106.54289246 51.13864136 C-105.52198013 51.15218658 -104.50106781 51.16573181 -103.44921875 51.1796875 C-101.2688788 51.17888081 -99.0885389 51.1762186 -96.90820312 51.171875 C-93.48444198 51.17383831 -90.06238796 51.1875015 -86.63891602 51.23339844 C-83.32465888 51.27257801 -80.01358689 51.26128452 -76.69921875 51.2421875 C-75.68437912 51.26787811 -74.66953949 51.29356873 -73.62394714 51.32003784 C-67.9665333 51.24399471 -64.96471877 50.5336979 -60.87426758 46.48876953 C-59.68100388 45.11961746 -58.51308646 43.72784973 -57.375 42.3125 C-56.2740352 41.05967897 -55.17034154 39.80924422 -54.0625 38.5625 C-53.49273437 37.90121094 -52.92296875 37.23992187 -52.3359375 36.55859375 C-49.99401523 33.87611306 -47.59637985 31.24716388 -45.1875 28.625 C-44.4922522 27.86799805 -44.4922522 27.86799805 -43.78295898 27.09570312 C-41.27603159 24.37002191 -38.76282335 21.65022492 -36.24609375 18.93359375 C-35.20570308 17.80991998 -34.16533826 16.68622228 -33.125 15.5625 C-32.6194458 15.017146 -32.1138916 14.47179199 -31.59301758 13.90991211 C-28.26679421 10.31111029 -25.02406107 6.65434888 -21.875 2.8984375 C-15.57962286 -3.75761229 -8.01258655 -4.00629328 0 0 Z " fill="#03D0C5" transform="translate(514.375,317.6875)"/>
<path d="M0 0 C0.84528259 -0.0071553 1.69056519 -0.01431061 2.5614624 -0.02168274 C3.4856749 -0.02437164 4.40988739 -0.02706055 5.36210632 -0.02983093 C6.33801727 -0.03640213 7.31392822 -0.04297333 8.31941223 -0.04974365 C11.55328954 -0.06947605 14.78712043 -0.08113852 18.02104187 -0.09111023 C19.12509054 -0.09518576 20.22913921 -0.09926128 21.36664391 -0.10346031 C27.20904224 -0.12431977 33.05141708 -0.13862263 38.8938446 -0.147995 C44.92993401 -0.15906536 50.96565537 -0.19347317 57.00161457 -0.23316669 C61.6418934 -0.25930139 66.28208408 -0.267684 70.92243004 -0.27127647 C73.14757463 -0.27614974 75.37271509 -0.28778467 77.59778786 -0.30631447 C80.71223331 -0.33064065 83.82572011 -0.32975264 86.94023132 -0.32279968 C87.85837112 -0.33560974 88.77651093 -0.3484198 89.72247314 -0.36161804 C96.54660402 -0.30611472 100.03765907 1.64309397 105.15776062 6.20967102 C108.22433402 9.73055159 108.18774047 13.40771701 108.12260437 17.86592102 C107.68392513 21.4742122 106.2224487 23.45719503 103.84526062 26.14717102 C97.98348725 30.57340805 93.64185311 31.30139707 86.47416687 31.35249329 C85.62023346 31.36239288 84.76630005 31.37229248 83.88648987 31.38249207 C81.06027507 31.41410857 78.23404358 31.43887049 75.40776062 31.46357727 C73.44624905 31.484152 71.48474186 31.50514861 69.52323914 31.52655029 C64.3557545 31.5817751 59.18822971 31.6311716 54.02067566 31.67939758 C48.76164599 31.72953557 43.50267638 31.78530563 38.24369812 31.8405304 C30.56794418 31.92034471 22.89217408 31.9980092 15.21635437 32.07124329 C14.40898834 32.07902298 13.60162231 32.08680267 12.76979065 32.09481812 C9.79481551 32.12282626 6.82038683 32.14717102 3.84526062 32.14717102 C4.17526062 30.82717102 4.50526062 29.50717102 4.84526062 28.14717102 C5.96168442 28.15161224 7.07810822 28.15605347 8.22836304 28.16062927 C18.74883661 28.20117005 29.26929434 28.2311529 39.7898283 28.25079536 C45.19855695 28.2612332 50.60722255 28.27539251 56.01591492 28.29804993 C61.23544752 28.31977814 66.45491945 28.33173965 71.67449379 28.33692551 C73.665998 28.34062129 75.65749889 28.34783817 77.64897728 28.35863113 C80.43802952 28.37314566 83.22683099 28.37514897 86.01591492 28.3742218 C86.839505 28.38141235 87.66309509 28.38860291 88.51164246 28.39601135 C93.81938289 28.37691461 97.91358468 28.07884696 101.84526062 24.14717102 C102.50526062 23.48717102 103.16526062 22.82717102 103.84526062 22.14717102 C104.30959095 19.5868303 104.30959095 19.5868303 104.47026062 16.70967102 C104.54502625 15.74158508 104.61979187 14.77349915 104.69682312 13.77607727 C104.80263418 11.90210776 104.84526062 10.02412539 104.84526062 8.14717102 C103.52526062 8.14717102 102.20526062 8.14717102 100.84526062 8.14717102 C100.35026062 6.66217102 100.35026062 6.66217102 99.84526062 5.14717102 C94.29433659 2.03541545 89.5116793 1.7044792 83.23808289 1.71479797 C82.30071793 1.70460632 81.36335297 1.69441467 80.39758301 1.68391418 C77.31888279 1.65387324 74.24049418 1.64453176 71.16166687 1.63545227 C69.01931735 1.61859901 66.87697769 1.6004479 64.73464966 1.58105469 C59.11068296 1.53361904 53.48675621 1.50376793 47.86265564 1.47761536 C42.11784478 1.44777746 36.37317145 1.40125818 30.62846375 1.3561554 C19.36746807 1.27019541 8.10644404 1.20281754 -3.15473938 1.14717102 C-3.44477844 1.79814758 -3.7348175 2.44912415 -4.03364563 3.11982727 C-4.58858704 4.12336243 -4.58858704 4.12336243 -5.15473938 5.14717102 C-6.11380188 5.36373352 -6.11380188 5.36373352 -7.09223938 5.58467102 C-10.14201154 6.41642707 -10.60322778 8.49667203 -12.15473938 11.14717102 C-13.48807271 11.81383769 -14.82140605 12.48050435 -16.15473938 13.14717102 C-16.81653784 15.12762661 -16.81653784 15.12762661 -17.15473938 17.14717102 C-17.81473938 17.80717102 -18.47473938 18.46717102 -19.15473938 19.14717102 C-20.14473938 18.81717102 -21.13473938 18.48717102 -22.15473938 18.14717102 C-9.16875344 0.05336394 -9.16875344 0.05336394 0 0 Z " fill="#4CE1B8" transform="translate(579.1547393798828,367.8528289794922)"/>
<path d="M0 0 C0.99 0.66 1.98 1.32 3 2 C2.21625 2.7425 1.4325 3.485 0.625 4.25 C-2.01152971 6.70030128 -2.01152971 6.70030128 -2.9375 9.125 C-4.67037617 12.18301676 -6.73831593 12.73196909 -10 14 C-13.73194208 14.45269692 -17.44304418 14.46471655 -21.19921875 14.4765625 C-22.27122025 14.49214203 -23.34322174 14.50772156 -24.44770813 14.52377319 C-27.86096503 14.57117544 -31.27401857 14.59902185 -34.6875 14.625 C-38.11154999 14.66150527 -41.53548512 14.70211639 -44.95942688 14.74765015 C-47.08727796 14.77484922 -49.21521321 14.79621242 -51.34318542 14.81118774 C-52.78532158 14.82658096 -52.78532158 14.82658096 -54.2565918 14.84228516 C-55.10231247 14.84878082 -55.94803314 14.85527649 -56.81938171 14.86196899 C-59.54947322 15.03478112 -61.42500597 15.39675482 -63.3515625 17.41796875 C-66.08899152 21.22181951 -67.89484954 24.16307901 -68 29 C-67.38249718 31.7970198 -67.38249718 31.7970198 -66 34 C-65.01 34.33 -64.02 34.66 -63 35 C-63 36.32 -63 37.64 -63 39 C-54.74184786 39.09276991 -46.48391423 39.16379982 -38.22536945 39.20724869 C-34.39037453 39.22810438 -30.55573669 39.25638415 -26.72094727 39.30175781 C-23.01860747 39.34528908 -19.31661066 39.36915229 -15.61403465 39.37950897 C-14.20303131 39.38688742 -12.79204628 39.40129614 -11.38118935 39.42292023 C-9.40185552 39.45204479 -7.42217498 39.45363467 -5.44262695 39.45410156 C-4.31677689 39.46298401 -3.19092682 39.47186646 -2.03096008 39.48101807 C1.67328039 38.89314936 3.28999663 37.52852901 6 35 C6.57105469 34.54496094 7.14210938 34.08992188 7.73046875 33.62109375 C10.30033098 31.5335113 12.14935391 29.77596913 14 27 C16.125 26.3125 16.125 26.3125 18 26 C17.62488281 26.43570312 17.24976563 26.87140625 16.86328125 27.3203125 C16.35152344 27.91585938 15.83976562 28.51140625 15.3125 29.125 C14.76207031 29.76179688 14.21164062 30.39859375 13.64453125 31.0546875 C12.63678589 32.24674733 11.64942767 33.45690208 10.69921875 34.6953125 C7.21894093 39.20720362 3.72239766 41.64783534 -1.99694824 42.38768005 C-3.57530457 42.39578453 -3.57530457 42.39578453 -5.18554688 42.40405273 C-6.38699341 42.41673691 -7.58843994 42.42942108 -8.82629395 42.44248962 C-10.11080444 42.43955399 -11.39531494 42.43661835 -12.71875 42.43359375 C-14.06343854 42.43816039 -15.40812475 42.4434674 -16.75280762 42.44947815 C-19.56365473 42.45838717 -22.37421738 42.45601109 -25.18505859 42.44604492 C-28.77635869 42.43454837 -32.36667648 42.45478679 -35.9578476 42.48396206 C-38.73238292 42.50235916 -41.50668422 42.50202491 -44.28126526 42.49632454 C-46.24544451 42.49609788 -48.2096019 42.51295859 -50.17370605 42.53013611 C-61.14865266 42.44444321 -61.14865266 42.44444321 -66 38 C-66.598125 37.484375 -67.19625 36.96875 -67.8125 36.4375 C-70.76116813 32.86805963 -70.44900812 28.19810464 -70.4140625 23.80078125 C-69.7579316 19.36261279 -67.55156275 16.64248595 -64 14 C-60.54108919 12.39094109 -57.86569736 11.75888599 -54.0612793 11.80810547 C-53.10646164 11.81405731 -52.15164398 11.82000916 -51.16789246 11.82614136 C-50.14698013 11.83968658 -49.12606781 11.85323181 -48.07421875 11.8671875 C-45.8938788 11.86638081 -43.7135389 11.8637186 -41.53320312 11.859375 C-38.10944198 11.86133831 -34.68738796 11.8750015 -31.26391602 11.92089844 C-27.94965888 11.96007801 -24.63858689 11.94878452 -21.32421875 11.9296875 C-20.30937912 11.95537811 -19.29453949 11.98106873 -18.24894714 12.00753784 C-12.55151664 11.93095684 -9.55044217 11.18809314 -5.41723633 7.12939453 C-3.38775327 4.82960628 -1.70530819 2.55796228 0 0 Z " fill="#12A8DF" transform="translate(459,357)"/>
<path d="M0 0 C-2.58878511 2.77260705 -4.75264321 3.23210728 -8.39129639 3.36076355 C-10.23058257 3.36946062 -12.06999179 3.36148502 -13.90917969 3.34057617 C-14.91438156 3.34101425 -15.91958344 3.34145233 -16.95524597 3.34190369 C-20.27765325 3.33981373 -23.59955587 3.31647242 -26.921875 3.29296875 C-29.22544072 3.28737354 -31.52901 3.28310309 -33.83258057 3.28010559 C-39.8956691 3.26865095 -45.95854205 3.23917818 -52.02154541 3.20599365 C-58.20834436 3.17530627 -64.39517813 3.16160309 -70.58203125 3.14648438 C-82.72144889 3.11430929 -94.86070652 3.06310525 -107 3 C-107.33 5.31 -107.66 7.62 -108 10 C-108.33 10 -108.66 10 -109 10 C-109 7.03 -109 4.06 -109 1 C-95.52644017 0.86933304 -82.05287787 0.73892506 -68.57931232 0.60884857 C-62.32313731 0.54844205 -56.06696319 0.48794601 -49.81079102 0.42724609 C-43.77430101 0.3686809 -37.73780878 0.31034994 -31.70131493 0.25218201 C-29.39721788 0.22993833 -27.09312165 0.20760998 -24.78902626 0.18519592 C-21.56418694 0.15383935 -18.33934486 0.12278268 -15.11450195 0.09179688 C-14.16000153 0.08244614 -13.2055011 0.0730954 -12.22207642 0.0634613 C-10.8991584 0.05084007 -10.8991584 0.05084007 -9.54951477 0.03796387 C-8.78719197 0.03058952 -8.02486917 0.02321518 -7.23944569 0.01561737 C-4.82623073 -0.00121183 -2.41326584 -0.00258436 0 0 Z " fill="#6089ED" transform="translate(710,479)"/>
<path d="M0 0 C0.84528259 -0.0071553 1.69056519 -0.01431061 2.5614624 -0.02168274 C3.4856749 -0.02437164 4.40988739 -0.02706055 5.36210632 -0.02983093 C6.33801727 -0.03640213 7.31392822 -0.04297333 8.31941223 -0.04974365 C11.55328954 -0.06947605 14.78712043 -0.08113852 18.02104187 -0.09111023 C19.12509054 -0.09518576 20.22913921 -0.09926128 21.36664391 -0.10346031 C27.20904224 -0.12431977 33.05141708 -0.13862263 38.8938446 -0.147995 C44.92993401 -0.15906536 50.96565537 -0.19347317 57.00161457 -0.23316669 C61.6418934 -0.25930139 66.28208408 -0.267684 70.92243004 -0.27127647 C73.14757463 -0.27614974 75.37271509 -0.28778467 77.59778786 -0.30631447 C80.71223331 -0.33064065 83.82572011 -0.32975264 86.94023132 -0.32279968 C87.85837112 -0.33560974 88.77651093 -0.3484198 89.72247314 -0.36161804 C96.54660402 -0.30611472 100.03765907 1.64309397 105.15776062 6.20967102 C107.83501823 9.28355938 107.96447879 11.92111731 107.90776062 15.83467102 C107.89873718 16.64291321 107.88971375 17.4511554 107.88041687 18.28388977 C107.86301453 19.20621399 107.86301453 19.20621399 107.84526062 20.14717102 C107.51526062 20.14717102 107.18526062 20.14717102 106.84526062 20.14717102 C106.62869812 18.29092102 106.62869812 18.29092102 106.40776062 16.39717102 C106.0583756 13.58212603 105.64146696 10.87702132 104.84526062 8.14717102 C103.52526062 8.14717102 102.20526062 8.14717102 100.84526062 8.14717102 C100.35026062 6.66217102 100.35026062 6.66217102 99.84526062 5.14717102 C94.29433659 2.03541545 89.5116793 1.7044792 83.23808289 1.71479797 C82.30071793 1.70460632 81.36335297 1.69441467 80.39758301 1.68391418 C77.31888279 1.65387324 74.24049418 1.64453176 71.16166687 1.63545227 C69.01931735 1.61859901 66.87697769 1.6004479 64.73464966 1.58105469 C59.11068296 1.53361904 53.48675621 1.50376793 47.86265564 1.47761536 C42.11784478 1.44777746 36.37317145 1.40125818 30.62846375 1.3561554 C19.36746807 1.27019541 8.10644404 1.20281754 -3.15473938 1.14717102 C-3.44477844 1.79814758 -3.7348175 2.44912415 -4.03364563 3.11982727 C-4.58858704 4.12336243 -4.58858704 4.12336243 -5.15473938 5.14717102 C-6.11380188 5.36373352 -6.11380188 5.36373352 -7.09223938 5.58467102 C-10.14201154 6.41642707 -10.60322778 8.49667203 -12.15473938 11.14717102 C-13.48807271 11.81383769 -14.82140605 12.48050435 -16.15473938 13.14717102 C-16.81653784 15.12762661 -16.81653784 15.12762661 -17.15473938 17.14717102 C-17.81473938 17.80717102 -18.47473938 18.46717102 -19.15473938 19.14717102 C-20.14473938 18.81717102 -21.13473938 18.48717102 -22.15473938 18.14717102 C-9.16875344 0.05336394 -9.16875344 0.05336394 0 0 Z " fill="#29DEA4" transform="translate(579.1547393798828,367.8528289794922)"/>
<path d="M0 0 C0.495 1.98 0.495 1.98 1 4 C-7.27181357 11.49150525 -13.45344889 13.1600731 -24.4609375 12.88671875 C-25.82327995 12.87938944 -27.18564253 12.87520277 -28.54800415 12.87397766 C-31.38103001 12.86329373 -34.21199268 12.82654631 -37.04443359 12.76831055 C-40.66594001 12.69433334 -44.28569552 12.66903685 -47.90788841 12.66089153 C-50.71165118 12.65229442 -53.51505603 12.62716326 -56.31865311 12.59613991 C-58.29998712 12.57460941 -60.28139039 12.55978755 -62.26278687 12.54508972 C-63.46819122 12.51949478 -64.67359558 12.49389984 -65.91552734 12.4675293 C-67.50124039 12.44132759 -67.50124039 12.44132759 -69.11898804 12.41459656 C-72.37325221 11.94628655 -74.31928943 10.86002542 -77 9 C-76.67 8.34 -76.34 7.68 -76 7 C-75.46256668 7.32400787 -74.92513336 7.64801575 -74.37141418 7.98184204 C-71.45461003 9.23416118 -69.2303136 9.26757007 -66.05737305 9.29052734 C-64.25981819 9.3096669 -64.25981819 9.3096669 -62.4259491 9.32919312 C-60.48840508 9.33253159 -60.48840508 9.33253159 -58.51171875 9.3359375 C-57.1665686 9.34236911 -55.82141984 9.34909774 -54.47627258 9.35610962 C-51.65773275 9.36807397 -48.83931538 9.37179144 -46.02075195 9.37060547 C-42.42281068 9.37040257 -38.82566191 9.39767653 -35.22790813 9.43214989 C-32.44906567 9.45447706 -29.67041198 9.45844122 -26.89148903 9.45738602 C-24.92456328 9.46087046 -22.95769646 9.48250061 -20.9908905 9.50448608 C-14.11908316 9.46947773 -9.52193978 9.25002959 -4 5 C-1.6090093 2.41139607 -1.6090093 2.41139607 0 0 Z " fill="#C9FDFE" transform="translate(471,389)"/>
<path d="M0 0 C1.14901495 0.00138269 1.14901495 0.00138269 2.32124233 0.00279331 C3.19768902 0.00141865 4.0741357 0.00004398 4.97714138 -0.00137234 C6.43046368 0.00402058 6.43046368 0.00402058 7.91314602 0.00952244 C8.92766338 0.00937641 9.94218075 0.00923038 10.98744106 0.00907993 C14.35844936 0.00977954 17.72940317 0.01757414 21.10040188 0.02539158 C23.43067806 0.02725559 25.76095463 0.02867957 28.09123135 0.0296793 C34.23811828 0.03350581 40.38498176 0.04333723 46.5318594 0.05438328 C52.79884429 0.06459454 59.06583295 0.06917631 65.33282375 0.0742197 C77.63947471 0.08495938 89.94610822 0.10203739 102.25274563 0.12304783 C102.25274563 0.45304783 102.25274563 0.78304783 102.25274563 1.12304783 C51.26774563 1.61804783 51.26774563 1.61804783 -0.74725437 2.12304783 C-2.39725437 11.36304783 -4.04725437 20.60304783 -5.74725437 30.12304783 C-6.07725437 30.12304783 -6.40725437 30.12304783 -6.74725437 30.12304783 C-6.96952301 28.35390959 -7.1745931 26.58260412 -7.37225437 24.81054783 C-7.48827 23.82441502 -7.60428562 22.8382822 -7.72381687 21.82226658 C-7.74725437 19.12304783 -7.74725437 19.12304783 -5.74725437 16.12304783 C-5.15989102 13.57686985 -4.64106367 11.06690016 -4.18475437 8.49804783 C-2.67887007 0.1886555 -2.67887007 0.1886555 0 0 Z " fill="#406DD2" transform="translate(457.74725437164307,210.87695217132568)"/>
<path d="M0 0 C17.16 0 34.32 0 52 0 C51.67 0.66 51.34 1.32 51 2 C50.39944794 2.00586624 49.79889587 2.01173248 49.18014526 2.01777649 C42.91796652 2.08181217 36.65629685 2.16625822 30.39453125 2.26245117 C28.05898763 2.29566333 25.72336447 2.32370676 23.38769531 2.34643555 C20.02634855 2.38004901 16.66572831 2.43237003 13.3046875 2.48828125 C11.74341629 2.49786613 11.74341629 2.49786613 10.15060425 2.50764465 C2.96926338 2.65261087 -1.47887261 3.64329397 -6.875 8.6875 C-7.57625 9.450625 -8.2775 10.21375 -9 11 C-8.67 9.35 -8.34 7.7 -8 6 C-7.34 6 -6.68 6 -6 6 C-5.67 5.01 -5.34 4.02 -5 3 C-3.35 2.67 -1.7 2.34 0 2 C0 1.34 0 0.68 0 0 Z " fill="#C7FCFF" transform="translate(398,367)"/>
<path d="M0 0 C0.99 0.495 0.99 0.495 2 1 C0.30260044 2.94808313 -1.40681787 4.88288354 -3.125 6.8125 C-3.599375 7.35970703 -4.07375 7.90691406 -4.5625 8.47070312 C-5.03945313 9.00244141 -5.51640625 9.53417969 -6.0078125 10.08203125 C-6.43723145 10.56905518 -6.86665039 11.0560791 -7.30908203 11.55786133 C-11.59987487 15.21736368 -15.7320918 16.37511146 -21.28076172 16.34057617 C-22.5015744 16.34034958 -23.72238708 16.34012299 -24.98019409 16.33988953 C-26.28352692 16.32440567 -27.58685974 16.30892181 -28.9296875 16.29296875 C-30.28874237 16.28736703 -31.64780334 16.28309966 -33.00686646 16.28010559 C-36.56784055 16.26870194 -40.12844215 16.23927429 -43.68927002 16.20599365 C-47.32925377 16.17519543 -50.96929825 16.16157952 -54.609375 16.14648438 C-61.73973486 16.11439956 -68.86984299 16.06325826 -76 16 C-76 15.67 -76 15.34 -76 15 C-74.86272461 14.97494385 -73.72544922 14.9498877 -72.55371094 14.92407227 C-68.22958931 14.82805809 -63.90555846 14.72835719 -59.58154297 14.62768555 C-57.72967692 14.58505335 -55.87778924 14.54334857 -54.02587891 14.50268555 C-48.59972259 14.38318618 -43.17473474 14.24259664 -37.74975586 14.07794189 C-35.89073481 14.0252479 -34.03149025 13.97999517 -32.17211914 13.94158936 C-29.43163275 13.88396674 -26.69281487 13.80188437 -23.953125 13.71484375 C-23.12528503 13.70288467 -22.29744507 13.6909256 -21.44451904 13.67860413 C-16.36633163 13.48593425 -13.74259873 12.72966399 -10 9 C-9.42894531 8.54496094 -8.85789062 8.08992188 -8.26953125 7.62109375 C-5.69966902 5.5335113 -3.85064609 3.77596913 -2 1 C-1.34 0.67 -0.68 0.34 0 0 Z " fill="#1FACCA" transform="translate(475,383)"/>
<path d="M0 0 C0.33 0 0.66 0 1 0 C1.00423194 0.54960577 1.00846388 1.09921154 1.01282406 1.66547203 C1.11604345 15.02688979 1.22473064 28.38825338 1.33933926 41.74957848 C1.3945964 48.21096435 1.44802085 54.67235472 1.49731445 61.13378906 C1.54491684 67.36482417 1.59725811 73.59580282 1.65294075 79.82677078 C1.67338303 82.20869167 1.69209296 84.59062806 1.70907402 86.97257614 C1.73307658 90.29866917 1.7631368 93.62465474 1.79467773 96.95068359 C1.8004332 97.94402206 1.80618866 98.93736053 1.81211853 99.96080017 C1.82190735 100.86386398 1.83169617 101.7669278 1.84178162 102.69735718 C1.84823417 103.48456839 1.85468672 104.27177959 1.8613348 105.08284569 C1.88361553 107.08516792 1.88361553 107.08516792 3 109 C3.04022391 111.3329866 3.04320247 113.66706666 3 116 C0.38373829 113.38373829 0.07936024 111.42541515 -0.12304783 107.78989792 C-0.12212604 106.98240726 -0.12120424 106.17491661 -0.12025452 105.34295654 C-0.12162918 104.41190094 -0.12300385 103.48084534 -0.12442017 102.52157593 C-0.12082489 101.50737579 -0.11722961 100.49317566 -0.11352539 99.44824219 C-0.11367142 98.37476532 -0.11381744 97.30128845 -0.1139679 96.19528198 C-0.11327103 92.64579246 -0.10548914 89.09635536 -0.09765625 85.546875 C-0.09579127 83.08636504 -0.09436774 80.6258547 -0.09336853 78.16534424 C-0.08954967 71.68805924 -0.07972472 65.21079665 -0.06866455 58.73352051 C-0.0584369 52.12443342 -0.053868 45.51534272 -0.04882812 38.90625 C-0.03810192 25.93749044 -0.02122515 12.96874641 0 0 Z " fill="#5077D6" transform="translate(306,330)"/>
<path d="M0 0 C0.99 0.495 0.99 0.495 2 1 C1.34 1.66 0.68 2.32 0 3 C-1.32 3 -2.64 3 -4 3 C-4 3.66 -4 4.32 -4 5 C-39.64 4.67 -75.28 4.34 -112 4 C-112 3.67 -112 3.34 -112 3 C-110.02802139 2.98786972 -110.02802139 2.98786972 -108.01620483 2.97549438 C-95.62699287 2.8980106 -83.23789043 2.81026545 -70.84882164 2.71247292 C-64.47947747 2.66252662 -58.11014975 2.61619622 -51.74072266 2.578125 C-45.59391504 2.54125146 -39.44724561 2.49488547 -33.30055618 2.44193649 C-30.95544483 2.42340363 -28.61030388 2.40829158 -26.26514816 2.39665604 C-22.98049518 2.37977495 -19.69615792 2.35073466 -16.41162109 2.31884766 C-15.44201447 2.31668747 -14.47240784 2.31452728 -13.47341919 2.31230164 C-8.5316157 2.25101425 -4.68358512 1.73688412 0 0 Z " fill="#EAFCFE" transform="translate(711,314)"/>
<path d="M0 0 C0.99 0.66 1.98 1.32 3 2 C2.21625 2.7425 1.4325 3.485 0.625 4.25 C-2.01152971 6.70030128 -2.01152971 6.70030128 -2.9375 9.125 C-4.67969655 12.1994645 -6.71149988 12.74657638 -10 14 C-13.77904077 14.34466466 -17.51605026 14.21019884 -21.3046875 14.07421875 C-22.38380402 14.04777786 -23.46292053 14.02133698 -24.57473755 13.99409485 C-28.00873726 13.90658688 -31.44164941 13.79734607 -34.875 13.6875 C-37.20829482 13.62421488 -39.54162862 13.56234973 -41.875 13.50195312 C-47.58388744 13.35108696 -53.29203744 13.182391 -59 13 C-59 12.67 -59 12.34 -59 12 C-58.40388916 12.00523682 -57.80777832 12.01047363 -57.19360352 12.01586914 C-50.96326244 12.06272273 -44.73476206 12.05343289 -38.50439453 12.01220703 C-36.18246028 12.00411892 -33.86043087 12.01012736 -31.53857422 12.03076172 C-28.19113338 12.05802335 -24.84731448 12.03382644 -21.5 12 C-19.95421265 12.02912476 -19.95421265 12.02912476 -18.37719727 12.05883789 C-12.6410435 11.94523669 -9.56949967 11.21337107 -5.40625 7.125 C-3.38160727 4.8268715 -1.70280682 2.55421023 0 0 Z " fill="#20A3C9" transform="translate(459,357)"/>
<path d="M0 0 C0.70189453 0.00451172 1.40378906 0.00902344 2.12695312 0.01367188 C3.85550538 0.02543073 5.58401365 0.04336546 7.3125 0.0625 C7.3125 0.3925 7.3125 0.7225 7.3125 1.0625 C2.6925 1.0625 -1.9275 1.0625 -6.6875 1.0625 C-7.3475 2.3825 -8.0075 3.7025 -8.6875 5.0625 C-9.6465625 5.2790625 -9.6465625 5.2790625 -10.625 5.5 C-13.67477216 6.33175604 -14.1359884 8.41200101 -15.6875 11.0625 C-17.02083333 11.72916667 -18.35416667 12.39583333 -19.6875 13.0625 C-20.34929847 15.04295559 -20.34929847 15.04295559 -20.6875 17.0625 C-21.3475 17.7225 -22.0075 18.3825 -22.6875 19.0625 C-23.6775 18.7325 -24.6675 18.4025 -25.6875 18.0625 C-12.61409408 -0.15311225 -12.61409408 -0.15311225 0 0 Z " fill="#1FD3B5" transform="translate(582.6875,367.9375)"/>
<path d="M0 0 C0.66 5.94 1.32 11.88 2 18 C-1 15 -1 15 -1.29296875 12.51953125 C-1.25816406 11.62621094 -1.22335937 10.73289062 -1.1875 9.8125 C-1.16042969 8.91144531 -1.13335937 8.01039063 -1.10546875 7.08203125 C-1.07066406 6.39496094 -1.03585937 5.70789063 -1 5 C-5.67315611 8.08604649 -8.1340607 10.18001118 -11 15 C-13.6875 16.3125 -13.6875 16.3125 -16 17 C-14.01727184 12.69551588 -11.20343273 9.68764597 -8 6.25 C-7.4534375 5.64800781 -6.906875 5.04601562 -6.34375 4.42578125 C-2.24914966 0 -2.24914966 0 0 0 Z " fill="#C1F7F8" transform="translate(496,364)"/>
<path d="M0 0 C0.33 0 0.66 0 1 0 C1.57798165 9.82568807 1.57798165 9.82568807 -2 14 C-7.7840661 19.45268731 -14.3038258 18.45505263 -21.875 18.25 C-23.13570312 18.23195313 -24.39640625 18.21390625 -25.6953125 18.1953125 C-28.79765614 18.14830729 -31.8984338 18.08260676 -35 18 C-35 17.67 -35 17.34 -35 17 C-32.50018262 16.8301095 -30.00020399 16.66402047 -27.5 16.5 C-26.80390625 16.45230469 -26.1078125 16.40460938 -25.390625 16.35546875 C-21.80011542 16.12275054 -18.24704732 15.98313307 -14.6484375 16.0234375 C-10.01134685 15.99364891 -7.28365814 15.28365814 -4 12 C-3.34 11.34 -2.68 10.68 -2 10 C-1.32059533 7.57284794 -1.32059533 7.57284794 -0.875 4.875 C-0.70742188 3.96492188 -0.53984375 3.05484375 -0.3671875 2.1171875 C-0.18542969 1.06917969 -0.18542969 1.06917969 0 0 Z " fill="#19E89D" transform="translate(685,380)"/>
<path d="M0 0 C0 3.58546996 -0.87115867 4.65261559 -2.875 7.5625 C-3.40867187 8.34753906 -3.94234375 9.13257813 -4.4921875 9.94140625 C-6 12 -6 12 -8 14 C-8.99 14 -9.98 14 -11 14 C-11.2475 14.763125 -11.495 15.52625 -11.75 16.3125 C-13.10995558 19.2364045 -14.31585826 20.30004356 -17 22 C-17.66 21.67 -18.32 21.34 -19 21 C-12.69242468 13.97634729 -6.35607328 6.97973809 0 0 Z " fill="#16BBC9" transform="translate(484,330)"/>
<path d="M0 0 C1.14662109 0.10054688 1.14662109 0.10054688 2.31640625 0.203125 C4.81352176 0.84694852 5.79870002 1.80228884 7.4375 3.75 C6.61572266 3.51216797 6.61572266 3.51216797 5.77734375 3.26953125 C0.26965372 2.04662178 -5.54339225 1.65631664 -10.5625 4.375 C-12.71551835 6.71838596 -12.71551835 6.71838596 -14 9.875 C-15.5625 12.75 -15.5625 12.75 -18.75 14.125 C-19.678125 14.33125 -20.60625 14.5375 -21.5625 14.75 C-12.92197841 2.27979668 -12.92197841 2.27979668 -6.63671875 0.07421875 C-4.32080054 -0.28777976 -2.33127375 -0.23667754 0 0 Z " fill="#26BEC2" transform="translate(506.5625,315.25)"/>
<path d="M0 0 C0.66 0.33 1.32 0.66 2 1 C1.27581193 6.97282736 0.46312972 12.92622525 -0.4375 18.875 C-0.55931641 19.72835938 -0.68113281 20.58171875 -0.80664062 21.4609375 C-0.93103516 22.275625 -1.05542969 23.0903125 -1.18359375 23.9296875 C-1.29243896 24.66429199 -1.40128418 25.39889648 -1.51342773 26.15576172 C-2 28 -2 28 -4 30 C-4.25645895 23.26795268 -3.28162548 17.0986393 -2 10.5 C-1.80921875 9.48679687 -1.6184375 8.47359375 -1.421875 7.4296875 C-0.95435389 4.95182561 -0.48026672 2.47541732 0 0 Z " fill="#577EDB" transform="translate(571,488)"/>
<path d="M0 0 C0.66 0 1.32 0 2 0 C2.06058594 0.77085937 2.12117187 1.54171875 2.18359375 2.3359375 C2.26738281 3.33882813 2.35117187 4.34171875 2.4375 5.375 C2.55931641 6.87160156 2.55931641 6.87160156 2.68359375 8.3984375 C2.84965626 10.97927613 2.84965626 10.97927613 4 13 C4.0716735 15.55157655 4.09308442 18.07472971 4.0625 20.625 C4.05798828 21.33140625 4.05347656 22.0378125 4.04882812 22.765625 C4.03703875 24.51045275 4.01910324 26.255237 4 28 C3.67 28 3.34 28 3 28 C2.4932817 24.45926096 1.99582971 20.91727889 1.5 17.375 C1.35691406 16.37597656 1.21382812 15.37695312 1.06640625 14.34765625 C0.39647818 9.53055443 -0.19978289 4.87803213 0 0 Z " fill="#D5FEFD" transform="translate(525,360)"/>
<path d="M0 0 C0.99 0.66 1.98 1.32 3 2 C2.21625 2.7425 1.4325 3.485 0.625 4.25 C-2.01152971 6.70030128 -2.01152971 6.70030128 -2.9375 9.125 C-4.56440723 11.99601275 -7.05713165 12.72049202 -10 14 C-10 11 -10 11 -8.3203125 9.0625 C-7.59585937 8.381875 -6.87140625 7.70125 -6.125 7 C-3.69915419 4.704576 -1.86499904 2.79749856 0 0 Z " fill="#15B5D4" transform="translate(459,357)"/>
<path d="M0 0 C0.66 0.33 1.32 0.66 2 1 C0.35 10.24 -1.3 19.48 -3 29 C-3.33 29 -3.66 29 -4 29 C-4.22226864 27.23086176 -4.42733873 25.45955629 -4.625 23.6875 C-4.74101562 22.70136719 -4.85703125 21.71523437 -4.9765625 20.69921875 C-5 18 -5 18 -3 15 C-2.3882502 12.43233454 -1.84936465 9.90456398 -1.375 7.3125 C-1.2409375 6.61060547 -1.106875 5.90871094 -0.96875 5.18554688 C-0.6397283 3.45818294 -0.31904688 1.72923409 0 0 Z " fill="#4C78D8" transform="translate(455,212)"/>
<path d="M0 0 C1.33333333 1.33333333 2.66666667 2.66666667 4 4 C5.299375 5.2684375 5.299375 5.2684375 6.625 6.5625 C9 9 9 9 11 12 C9.68 12 8.36 12 7 12 C7 11.34 7 10.68 7 10 C5.68 10 4.36 10 3 10 C2.87625 9.360625 2.7525 8.72125 2.625 8.0625 C2.315625 7.0415625 2.315625 7.0415625 2 6 C1.34 5.67 0.68 5.34 0 5 C-0.6875 3 -0.6875 3 -1 1 C-0.67 0.67 -0.34 0.34 0 0 Z " fill="#E4F3FC" transform="translate(309,450)"/>
<path d="M0 0 C0.33 1.32 0.66 2.64 1 4 C0.01 4.66 -0.98 5.32 -2 6 C-2.45375 6.825 -2.9075 7.65 -3.375 8.5 C-5.28921299 11.44494305 -6.69435833 12.01724166 -10 13 C-8.48446596 9.52224821 -6.4226544 7.0442016 -3.875 4.25 C-3.15054687 3.45078125 -2.42609375 2.6515625 -1.6796875 1.828125 C-0.84824219 0.92320312 -0.84824219 0.92320312 0 0 Z " fill="#D1FAFA" transform="translate(490,368)"/>
<path d="M0 0 C0 0.66 0 1.32 0 2 C0.99 2.33 1.98 2.66 3 3 C0.51931873 4.24034064 -0.43188994 3.8535666 -3.125 3.375 C-8.21234905 2.70713084 -11.3746787 3.89758123 -16 6 C-16 5.34 -16 4.68 -16 4 C-15.34 4 -14.68 4 -14 4 C-14 3.34 -14 2.68 -14 2 C-9.07262981 0.02905192 -5.21979128 -0.1799928 0 0 Z " fill="#D2FBFB" transform="translate(510,313)"/>
<path d="M0 0 C0.66 0.99 1.32 1.98 2 3 C1.690625 3.598125 1.38125 4.19625 1.0625 4.8125 C-0.10209704 7.08956772 -0.10209704 7.08956772 -1 10 C-2.4375 11.5625 -2.4375 11.5625 -4 13 C-4.66 13.66 -5.32 14.32 -6 15 C-6.66 14.34 -7.32 13.68 -8 13 C-7.59007812 12.48050781 -7.18015625 11.96101562 -6.7578125 11.42578125 C-3.92363424 7.7576223 -1.40171967 4.48550294 0 0 Z " fill="#E4F3FC" transform="translate(588,565)"/>
<path d="M0 0 C0.99 0.33 1.98 0.66 3 1 C-0.3 4.96 -3.6 8.92 -7 13 C-7.33 11.68 -7.66 10.36 -8 9 C-7.01 9 -6.02 9 -5 9 C-4.67 7.35 -4.34 5.7 -4 4 C-3.01 4 -2.02 4 -1 4 C-0.67 2.68 -0.34 1.36 0 0 Z " fill="#1DD2AE" transform="translate(576,407)"/>
<path d="M0 0 C0 3 0 3 -1 6 C-2.33333333 7.33333333 -3.66666667 8.66666667 -5 10 C-5.33 10.721875 -5.66 11.44375 -6 12.1875 C-7 14 -7 14 -9.0625 14.61328125 C-9.701875 14.74089844 -10.34125 14.86851562 -11 15 C-7.59445921 9.73369981 -4.12331138 4.7296807 0 0 Z " fill="#20CEB6" transform="translate(554,391)"/>
<path d="M0 0 C2.55914724 2.55914724 2.56934885 4.20441649 3.125 7.75 C3.29257812 8.77609375 3.46015625 9.8021875 3.6328125 10.859375 C3.99289478 13.93922772 4.06491813 16.90247797 4 20 C0.31068662 13.67546278 -0.25454902 7.12737257 0 0 Z " fill="#4F78D5" transform="translate(593,232)"/>
<path d="M0 0 C1.32 0 2.64 0 4 0 C3.67 0.99 3.34 1.98 3 3 C6.3 3.99 9.6 4.98 13 6 C13 6.33 13 6.66 13 7 C6.7950962 6.7242265 2.89839001 5.89359206 -2 2 C-1.34 1.34 -0.68 0.68 0 0 Z " fill="#4E7BD8" transform="translate(440,578)"/>
<path d="M0 0 C0.99 0.33 1.98 0.66 3 1 C1 3 1 3 -1.33837891 3.22705078 C-2.29147949 3.21657715 -3.24458008 3.20610352 -4.2265625 3.1953125 C-5.7734375 3.18564453 -5.7734375 3.18564453 -7.3515625 3.17578125 C-8.43179687 3.15902344 -9.51203125 3.14226562 -10.625 3.125 C-11.71296875 3.11597656 -12.8009375 3.10695313 -13.921875 3.09765625 C-16.61480152 3.07403409 -19.30729255 3.04109556 -22 3 C-22 2.67 -22 2.34 -22 2 C-21.40461426 1.97494385 -20.80922852 1.9498877 -20.19580078 1.92407227 C-17.50530864 1.80822506 -14.8151766 1.68544804 -12.125 1.5625 C-11.18785156 1.52318359 -10.25070312 1.48386719 -9.28515625 1.44335938 C-8.38925781 1.40146484 -7.49335938 1.35957031 -6.5703125 1.31640625 C-5.32918701 1.26141968 -5.32918701 1.26141968 -4.06298828 1.20532227 C-1.93820571 1.11761673 -1.93820571 1.11761673 0 0 Z " fill="#13B6D4" transform="translate(462,395)"/>
<path d="M0 0 C0.33 0.66 0.66 1.32 1 2 C-0.25 5.5625 -0.25 5.5625 -2 9 C-2.99 9.33 -3.98 9.66 -5 10 C-5.33 10.66 -5.66 11.32 -6 12 C-6.66 11.67 -7.32 11.34 -8 11 C-5.36 7.37 -2.72 3.74 0 0 Z " fill="#1DC9BB" transform="translate(542,407)"/>
<path d="M0 0 C0.45375 0.639375 0.9075 1.27875 1.375 1.9375 C2.83921726 4.09702406 2.83921726 4.09702406 5 5 C5 4.34 5 3.68 5 3 C5.66 3.33 6.32 3.66 7 4 C5.35 6.31 3.7 8.62 2 11 C-0.67927341 6.98108988 -0.15601248 4.75838077 0 0 Z " fill="#C9FCFB" transform="translate(532,408)"/>
<path d="M0 0 C0 3.29222682 -0.41495585 4.02719653 -2.25 6.625 C-2.66765625 7.23601562 -3.0853125 7.84703125 -3.515625 8.4765625 C-5.27840279 10.28572918 -6.53955077 10.61095461 -9 11 C-6.36113346 6.7973607 -3.63559661 3.43361902 0 0 Z " fill="#24BACB" transform="translate(474,341)"/>
<path d="M0 0 C0.66 0.33 1.32 0.66 2 1 C2.21192221 6.19209404 1.5912689 10.126739 0 15 C-0.66 15 -1.32 15 -2 15 C-1.38487182 9.99109914 -0.7282448 4.99367864 0 0 Z " fill="#557FDB" transform="translate(417,261)"/>
<path d="M0 0 C0.33 1.32 0.66 2.64 1 4 C-1.375 6.625 -1.375 6.625 -4 9 C-4.33 9.66 -4.66 10.32 -5 11 C-5.99 10.67 -6.98 10.34 -8 10 C-5.36 6.7 -2.72 3.4 0 0 Z " fill="#CCFCF9" transform="translate(565,424)"/>
<path d="M0 0 C0 0.99 0 1.98 0 3 C-4.62 3.66 -9.24 4.32 -14 5 C-14 4.34 -14 3.68 -14 3 C-12.0424015 2.49713066 -10.08389623 1.9977901 -8.125 1.5 C-7.03445313 1.2215625 -5.94390625 0.943125 -4.8203125 0.65625 C-2 0 -2 0 0 0 Z " fill="#E1F1FD" transform="translate(378,292)"/>
<path d="M0 0 C0.66 0.33 1.32 0.66 2 1 C1.67 5.95 1.34 10.9 1 16 C0.67 16 0.34 16 0 16 C-0.19441368 13.7089095 -0.38033135 11.41709663 -0.5625 9.125 C-0.71912109 7.21074219 -0.71912109 7.21074219 -0.87890625 5.2578125 C-1 2 -1 2 0 0 Z " fill="#1CC2C5" transform="translate(502,396)"/>
<path d="M0 0 C0.99 0.33 1.98 0.66 3 1 C0.36 3.97 -2.28 6.94 -5 10 C-5.33 9.01 -5.66 8.02 -6 7 C-5.34 6.01 -4.68 5.02 -4 4 C-3.34 4 -2.68 4 -2 4 C-2 3.34 -2 2.68 -2 2 C-1.34 2 -0.68 2 0 2 C0 1.34 0 0.68 0 0 Z " fill="#22BACC" transform="translate(483,373)"/>
<path d="M0 0 C-1.3303125 0.5878125 -1.3303125 0.5878125 -2.6875 1.1875 C-6.12129608 3.06636955 -8.36541769 5.13295455 -11 8 C-10.67 6.35 -10.34 4.7 -10 3 C-9.34 3 -8.68 3 -8 3 C-7.67 2.01 -7.34 1.02 -7 0 C-3.86650268 -1.04449911 -3.01031744 -0.93423645 0 0 Z " fill="#C4F5FC" transform="translate(400,370)"/>
<path d="M0 0 C0.33 0.66 0.66 1.32 1 2 C-0.43257963 4.72872311 -1.81722366 6.81722366 -4 9 C-4.99 8.67 -5.98 8.34 -7 8 C-4.69 5.36 -2.38 2.72 0 0 Z " fill="#D2FDF9" transform="translate(575,412)"/>
<path d="M0 0 C0.33 0 0.66 0 1 0 C1.36463732 1.74784829 1.7163078 3.49840502 2.0625 5.25 C2.25972656 6.22453125 2.45695313 7.1990625 2.66015625 8.203125 C2.98397535 10.868119 2.85503199 12.48871723 2 15 C-0.49118146 9.32010626 -1.38766322 6.05525768 0 0 Z " fill="#CFE3FC" transform="translate(570,273)"/>
<path d="M0 0 C4.07279689 0.38422612 7.46574118 0.87944471 11 3 C2.42857143 3.28571429 2.42857143 3.28571429 -1 1 C-0.67 0.67 -0.34 0.34 0 0 Z " fill="#D4EAFB" transform="translate(377,441)"/>
<path d="M0 0 C0.66 1.32 1.32 2.64 2 4 C0.35 5.65 -1.3 7.3 -3 9 C-2.44271087 5.65626525 -1.64826111 2.96687001 0 0 Z " fill="#14BFC7" transform="translate(489,364)"/>
<path d="M0 0 C1.32 0.33 2.64 0.66 4 1 C2.02 3.31 0.04 5.62 -2 8 C-2.33 7.34 -2.66 6.68 -3 6 C-2.67 5.34 -2.34 4.68 -2 4 C-1.34 4 -0.68 4 0 4 C0 2.68 0 1.36 0 0 Z " fill="#CDFBF9" transform="translate(485,324)"/>
<path d="M0 0 C0.33 1.32 0.66 2.64 1 4 C-1.97 6.475 -1.97 6.475 -5 9 C-5.66 8.67 -6.32 8.34 -7 8 C-4.69 5.36 -2.38 2.72 0 0 Z " fill="#D3FDFC" transform="translate(542,452)"/>
<path d="M0 0 C0.66 0 1.32 0 2 0 C1.8125 1.8125 1.8125 1.8125 1 4 C-1.5625 5.75 -1.5625 5.75 -4 7 C-2.79618552 4.50638429 -1.54571278 2.31856917 0 0 Z " fill="#5278E0" transform="translate(315,310)"/>
</svg>
